#!OML:ASF I:\Actors\actors\Patient Classification 1\Patient 1\Session 1\Subject1.ASF
:FULLY-SPECIFIED
:DEGREES
1851
root 0.735007 17.389 8.90676 0.915185 -3.03182 -11.622
lowerback -4.32452 -0.398048 4.83115
upperback -8.99193 -0.247061 5.57286
thorax -7.01375 -0.223758 3.17071
lowerneck -5.88695 -1.98404 5.29049
upperneck 28.3322 -3.09085 -2.59169
head 9.79166 -1.18871 -2.13213
rclavicle -9.34288e-015 5.20816e-014
rhumerus 11.5431 18.7283 -77.6274
rradius 63.3253
rwrist -10.4469
rhand 5.42325 -52.5221
rfingers 7.12502
rthumb 30.7736 -79.9665
lclavicle -9.34288e-015 5.20816e-014
lhumerus 8.05482 -23.4299 76.4343
lradius 65.9363
lwrist 39.7612
lhand -20.7897 1.73796
lfingers 7.12502
lthumb 5.57741 31.6446
rfemur 0.585904 15.3836 30.0653
rtibia 10.3853
rfoot -14.8825 -19.5972
rtoes -2.2372
lfemur 12.1368 -32.4901 -11.1222
ltibia -2.78067
lfoot -12.893 41.65
ltoes -1.59824
1852
root 0.741431 17.3856 8.91438 0.782951 -3.08761 -11.6154
lowerback -4.42706 -0.365338 4.7979
upperback -8.89658 -0.220655 5.54377
thorax -6.85 -0.208247 3.15225
lowerneck -5.77928 -1.99657 5.36549
upperneck 28.219 -3.09748 -2.64524
head 9.72703 -1.19195 -2.15964
rclavicle 1.14301e-014 -6.89783e-014
rhumerus 11.5978 19.2281 -77.3714
rradius 63.0245
rwrist -10.9764
rhand 5.89347 -52.7563
rfingers 7.12502
rthumb 31.2218 -80.1152
lclavicle 1.14301e-014 -6.89783e-014
lhumerus 8.01408 -23.4013 76.6427
lradius 65.8329
lwrist 39.1983
lhand -20.6763 1.41239
lfingers 7.12502
lthumb 5.68687 31.3161
rfemur 0.736637 15.3395 30.0756
rtibia 10.4315
rfoot -14.8796 -19.5422
rtoes -2.7207
lfemur 12.3973 -32.4119 -11.2817
ltibia -2.8359
lfoot -12.8733 41.6227
ltoes -1.74543
1853
root 0.749975 17.3828 8.92117 0.673902 -3.12494 -11.5859
lowerback -4.48664 -0.317839 4.78483
upperback -8.85892 -0.167085 5.49774
thorax -6.77501 -0.181882 3.10736
lowerneck -5.79361 -2.05122 5.36088
upperneck 28.2907 -3.16417 -2.69156
head 9.75148 -1.22729 -2.18324
rclavicle -5.86415e-015 5.20816e-014
rhumerus 11.5325 19.5122 -77.2447
rradius 62.5188
rwrist -11.2565
rhand 6.47852 -52.9232
rfingers 7.12502
rthumb 31.7792 -80.1731
lclavicle -5.86415e-015 5.20816e-014
lhumerus 8.0098 -23.4398 76.8662
lradius 65.5902
lwrist 38.7492
lhand -20.6999 1.1512
lfingers 7.12502
lthumb 5.66409 31.0555
rfemur 0.864134 15.2761 30.0369
rtibia 10.4695
rfoot -14.9571 -19.4427
rtoes -2.76064
lfemur 12.6041 -32.3393 -11.4566
ltibia -2.86482
lfoot -12.7942 41.5889
ltoes -2.03653
1854
root 0.76025 17.3815 8.92596 0.616272 -3.13673 -11.4673
lowerback -4.56111 -0.273513 4.70099
upperback -8.83049 -0.119219 5.42858
thorax -6.70027 -0.154682 3.07768
lowerneck -5.88318 -2.08684 5.32396
upperneck 28.3989 -3.20864 -2.71744
head 9.80574 -1.2525 -2.19447
rclavicle -3.28989e-014 4.83047e-014
rhumerus 11.6774 19.9049 -76.9479
rradius 61.9674
rwrist -11.4898
rhand 6.73544 -53.0935
rfingers 7.12502
rthumb 32.0238 -80.2947
lclavicle -3.28989e-014 4.83047e-014
lhumerus 8.0699 -23.3573 77.1605
lradius 65.1873
lwrist 38.3642
lhand -20.659 1.01007
lfingers 7.12502
lthumb 5.70355 30.9133
rfemur 0.920683 15.2348 29.8721
rtibia 10.5182
rfoot -15.0774 -19.3693
rtoes -2.44811
lfemur 12.6937 -32.2976 -11.7013
ltibia -2.84403
lfoot -12.6934 41.5607
ltoes -2.32525
1855
root 0.768311 17.3866 8.92886 0.706024 -3.15508 -10.8869
lowerback -4.79457 -0.236714 4.11697
upperback -8.83113 -0.0962931 5.23098
thorax -6.55844 -0.11255 3.18996
lowerneck -6.00999 -2.10511 5.29774
upperneck 28.4695 -3.24437 -2.6953
head 9.85519 -1.26783 -2.18976
rclavicle 1.14301e-014 -6.75868e-015
rhumerus 11.8904 21.0195 -75.9091
rradius 61.4429
rwrist -12.2585
rhand 6.43017 -52.8822
rfingers 7.12502
rthumb 31.7331 -80.1413
lclavicle 1.14301e-014 -6.75868e-015
lhumerus 8.18978 -23.2 77.4234
lradius 64.6909
lwrist 38.2252
lhand -20.5149 0.785377
lfingers 7.12502
lthumb 5.84275 30.6848
rfemur 0.747905 15.3047 29.1209
rtibia 10.5965
rfoot -15.1724 -19.3883
rtoes -2.1377
lfemur 12.5359 -32.4119 -12.4197
ltibia -2.72574
lfoot -12.7482 41.7021
ltoes -2.09933
1856
root 0.77409 17.3965 8.93085 0.919613 -3.24951 -9.86634
lowerback -5.12378 -0.201744 3.09247
upperback -8.89757 -0.0775694 4.9012
thorax -6.43023 -0.0501334 3.411
lowerneck -6.10831 -2.10915 5.24876
upperneck 28.5129 -3.27114 -2.60997
head 9.89194 -1.27504 -2.15694
rclavicle 2.37548e-014 -2.88238e-014
rhumerus 11.8759 23.5731 -73.4959
rradius 61.2884
rwrist -14.471
rhand 5.146 -52.0194
rfingers 7.12502
rthumb 30.5092 -79.5132
lclavicle 2.37548e-014 -2.88238e-014
lhumerus 8.27315 -22.9721 77.6331
lradius 64.1471
lwrist 38.4893
lhand -20.3105 0.42479
lfingers 7.12502
lthumb 6.04009 30.3187
rfemur 0.335478 15.4791 27.8068
rtibia 10.7569
rfoot -15.2233 -19.4422
rtoes -2.12953
lfemur 12.2084 -32.7508 -13.6547
ltibia -2.48119
lfoot -13.0478 42.1148
ltoes -1.50618
1857
root 0.782453 17.4017 8.93049 1.01651 -3.31449 -9.22064
lowerback -5.20524 -0.187112 2.53787
upperback -8.96342 -0.0655139 4.66619
thorax -6.44971 -0.017645 3.47386
lowerneck -6.16449 -2.10211 5.2211
upperneck 28.5333 -3.24398 -2.66793
head 9.91007 -1.27145 -2.17161
rclavicle 2.08724e-014 -1.63003e-014
rhumerus 11.4368 15.8924 -80.6151
rradius 58.3889
rwrist -4.67298
rhand 8.72452 -50.4597
rfingers 7.12502
rthumb 33.9156 -77.2622
lclavicle 2.08724e-014 -1.63003e-014
lhumerus 8.31591 -22.6026 77.8523
lradius 63.5339
lwrist 38.919
lhand -20.2433 0.136983
lfingers 7.12502
lthumb 6.10492 30.029
rfemur 0.071578 15.5334 26.9577
rtibia 10.9032
rfoot -15.1777 -19.4629
rtoes -2.73966
lfemur 12.0258 -32.9571 -14.4745
ltibia -2.29123
lfoot -13.2053 42.3622
ltoes -1.34571
1858
root 0.799665 17.4006 8.92673 0.994955 -3.19692 -9.15497
lowerback -5.05133 -0.209515 2.75634
upperback -8.99251 -0.0921371 4.54592
thorax -6.56798 -0.0497984 3.2266
lowerneck -6.22064 -2.09062 5.10035
upperneck 28.5182 -3.21795 -2.63919
head 9.91898 -1.26937 -2.13908
rclavicle 3.8763e-015 1.86858e-014
rhumerus 13.0946 24.4735 -72.6996
rradius 60.4884
rwrist -13.9248
rhand 5.01857 -51.8144
rfingers 7.12502
rthumb 30.3877 -79.3308
lclavicle 3.8763e-015 1.86858e-014
lhumerus 8.37268 -22.1131 78.0974
lradius 62.8712
lwrist 39.2365
lhand -20.4057 -0.169914
lfingers 7.12502
lthumb 5.94817 29.7266
rfemur 0.0689494 15.2608 26.7883
rtibia 10.9067
rfoot -15.1083 -19.3377
rtoes -3.02813
lfemur 11.9625 -32.8435 -14.5776
ltibia -2.24828
lfoot -13.0979 42.1609
ltoes -1.53476
1859
root 0.826452 17.3972 8.92095 0.993837 -3.02032 -9.29822
lowerback -4.84366 -0.192867 3.43649
upperback -9.0419 -0.0661037 4.36773
thorax -6.74485 -0.0889924 2.66125
lowerneck -6.23465 -2.11676 4.9744
upperneck 28.4511 -3.27611 -2.48343
head 9.90082 -1.294 -2.06708
rclavicle -2.52953e-014 4.4329e-014
rhumerus 12.6628 20.6479 -76.3984
rradius 60.1044
rwrist -8.93125
rhand 7.21397 -51.6301
rfingers 7.12502
rthumb 32.4793 -78.7388
lclavicle -2.52953e-014 4.4329e-014
lhumerus 8.37681 -21.6308 78.3785
lradius 62.2373
lwrist 39.2472
lhand -20.6475 -0.494053
lfingers 7.12502
lthumb 5.71471 29.4089
rfemur 0.0908761 14.6898 26.7826
rtibia 10.8396
rfoot -15.0764 -18.9369
rtoes -2.76108
lfemur 11.8854 -32.6767 -14.4715
ltibia -2.21189
lfoot -13.0176 41.8579
ltoes -1.65243
1860
root 0.850014 17.3987 8.91673 1.12268 -2.9551 -9.20429
lowerback -4.76811 -0.130301 3.88782
upperback -9.14498 0.0129658 4.08443
thorax -6.90352 -0.0924569 2.1132
lowerneck -6.18633 -2.16457 4.94142
upperneck 28.3482 -3.36506 -2.37026
head 9.85393 -1.32882 -2.02697
rclavicle 1.60519e-014 -1.73937e-014
rhumerus 13.1718 21.4539 -75.6574
rradius 60.2691
rwrist -9.688
rhand 6.53227 -51.5793
rfingers 7.12502
rthumb 31.8304 -78.8192
lclavicle 1.60519e-014 -1.73937e-014
lhumerus 8.30059 -21.1551 78.6479
lradius 61.645
lwrist 38.9795
lhand -21.02 -0.844209
lfingers 7.12502
lthumb 5.355 29.0681
rfemur -0.0400106 14.3189 26.4871
rtibia 10.7582
rfoot -15.0241 -18.6078
rtoes -2.88134
lfemur 11.6907 -32.6675 -14.6313
ltibia -2.13391
lfoot -13.0294 41.8081
ltoes -1.66578
1861
root 0.853517 17.4052 8.919 1.34053 -3.02157 -8.93527
lowerback -4.20031 -0.0441991 3.99689
upperback -9.74723 0.180546 3.73272
thorax -7.89187 -0.0420748 1.69915
lowerneck -5.77819 -2.24192 4.94067
upperneck 28.6643 -3.48692 -2.2681
head 9.88942 -1.36992 -2.00191
rclavicle 3.80176e-015 -1.05356e-014
rhumerus 12.7812 22.1577 -75.4957
rradius 60.4052
rwrist -9.99066
rhand 5.82279 -51.5979
rfingers 7.12502
rthumb 31.1544 -78.9699
lclavicle 3.80176e-015 -1.05356e-014
lhumerus 7.31747 -20.7999 79.2033
lradius 61.164
lwrist 38.776
lhand -21.4893 -1.27404
lfingers 7.12502
lthumb 4.9019 28.6493
rfemur -0.247167 14.7142 26.1461
rtibia 10.6793
rfoot -15.0149 -18.8828
rtoes -2.71841
lfemur 11.4432 -32.8285 -14.8493
ltibia -2.13377
lfoot -13.1905 42.0221
ltoes -1.35752
1862
root 0.841353 17.4102 8.92836 1.50343 -3.19115 -8.85319
lowerback -4.19327 0.016536 3.95619
upperback -9.92363 0.261879 3.58723
thorax -8.08957 -0.00812655 1.57019
lowerneck -5.77696 -2.25588 4.86316
upperneck 28.8447 -3.51037 -2.22315
head 9.95703 -1.38123 -1.97931
rclavicle 1.5791e-014 -2.50966e-015
rhumerus 13.3192 22.9188 -74.8821
rradius 60.3382
rwrist -9.75429
rhand 5.85057 -51.6449
rfingers 7.12502
rthumb 31.1809 -79.0117
lclavicle 1.5791e-014 -2.50966e-015
lhumerus 6.83766 -19.9808 79.6957
lradius 60.7288
lwrist 38.9092
lhand -21.8258 -1.53329
lfingers 7.12502
lthumb 4.57698 28.3973
rfemur -0.395846 15.5892 26.1617
rtibia 10.6818
rfoot -15.1261 -19.5085
rtoes -2.05626
lfemur 11.3348 -32.965 -14.76
ltibia -2.27318
lfoot -13.4451 42.27
ltoes -0.859787
